<svg xmlns="http://www.w3.org/2000/svg" xmlns:xlink="http://www.w3.org/1999/xlink" version="1.1" id="Layer_1" x="0px" y="0px" width="12px" height="12px" viewBox="0 0 12 12" enable-background="new 0 0 12 12" xml:space="preserve" ><rect id="svgEditorBackground" x="0" y="0" width="12" height="12" style="fill:none;stroke:none;"/>
<g>
	<path d="M11.864,3.017c-0.08200000000000074,-0.09799999999999986,-0.2029999999999994,-0.15399999999999991,-0.32699999999999996,-0.15399999999999991h-2.312000000000001v1.2269999999999999c0,0.5630000000000006,-0.484,1.0220000000000002,-1.08,1.0220000000000002c-0.5940000000000003,0,-1.0780000000000003,-0.4580000000000002,-1.0780000000000003,-1.0220000000000002v-1.2269999999999999h-2.1579999999999995v1.2269999999999999c0,0.5630000000000006,-0.4850000000000003,1.0220000000000002,-1.08,1.0220000000000002c-0.5950000000000002,0,-1.0780000000000003,-0.4580000000000002,-1.0780000000000003,-1.0220000000000002v-1.2269999999999999h-2.3129999999999993c-0.125,0,-0.24300000000000024,0.05600000000000005,-0.3270000000000009,0.15399999999999991c-0.08299999999999999,0.09800000000000031,-0.12300000000000008,0.2280000000000002,-0.10799999999999998,0.3580000000000001l0.7760000000000001,7.134c0.015000000000000013,0.8060000000000009,0.6420000000000008,1.455,1.411,1.455h7.595000000000001c0.7699999999999996,0,1.3960000000000008,-0.6490000000000009,1.4109999999999996,-1.455l0.7759999999999998,-7.134c0.015000000000000568,-0.1299999999999999,-0.0259999999999998,-0.2599999999999998,-0.10799999999999876,-0.3580000000000001Z" style="fill:#FFC600;"/>
	<path d="M3.829,4.499c0.23900000000000032,0,0.4330000000000003,-0.18400000000000016,0.4330000000000003,-0.4089999999999998v-2.25c0,-0.6320000000000001,0.6720000000000006,-1.0219999999999998,1.295,-1.0219999999999998h1.0789999999999997c0.6550000000000002,0,1.0780000000000003,0.4009999999999999,1.0780000000000003,1.0219999999999998v2.25c0,0.22499999999999964,0.19399999999999995,0.4089999999999998,0.43099999999999916,0.4089999999999998c0.23900000000000077,0,0.43299999999999983,-0.18400000000000016,0.43299999999999983,-0.4089999999999998v-2.25c-0.0009999999999994458,-1.0670000000000002,-0.8169999999999993,-1.84,-1.9419999999999993,-1.84h-1.0789999999999997c-1.1900000000000004,0,-2.1590000000000003,0.8260000000000002,-2.1590000000000003,1.84v2.25c0,0.22500000000000053,0.19399999999999995,0.4089999999999998,0.43100000000000005,0.4089999999999998Z" style="fill:rgb(255,198,0);"/>
</g>
</svg>