<svg xmlns="http://www.w3.org/2000/svg" xmlns:xlink="http://www.w3.org/1999/xlink" version="1.1" id="Layer_1" x="0px" y="0px" width="26.94300079345703px" height="34.09000015258789px" viewBox="0 0 26.94300079345703 34.09000015258789" enable-background="new 0 0 26.943 34.09" xml:space="preserve" ><rect id="svgEditorBackground" x="0" y="0" width="26.94300079345703" height="34.09000015258789" style="fill:none;stroke:none;"/>
  <path d="M13.620000000000001,0.017000000000000008l-0.14800000000000146,-0.017000000000000008l-13.472,1.412v24.661l13.473,8.017000000000003l13.429999999999998,-7.990000000000002l0.04200000000000159,-0.02499999999999858v-24.663000000000004l-13.325,-1.395ZM25.019,12.127l-11.524,-6.793000000000001l-0.0009999999999994458,-0.1039999999999992l-0.08699999999999974,0.04999999999999982l-0.08799999999999919,-0.05600000000000005v0.10899999999999999l-11.394,6.785v-8.971l11.548,-1.2119999999999997l11.547000000000002,1.2119999999999997v8.98ZM13.405,6.787l11.518000000000002,6.713l-4.478999999999999,2.6400000000000006l-7.093,-4.221l-0.013999999999999346,1.4149999999999991l5.904,3.5130000000000017l-0.8599999999999994,0.5070000000000014l-5.030000000000001,-2.992000000000001l-0.013999999999999346,1.4149999999999991l3.826999999999998,2.2749999999999986l-0.782,0.5229999999999997l-3.0310000000000006,-1.786999999999999l-0.013999999999999346,1.4130000000000003l1.8529999999999998,1.091000000000001l-1.8000000000000007,1.0809999999999995l-11.356000000000002,-6.751000000000001l11.370999999999999,-6.835ZM1.925,15.127l11.411,6.790999999999999l0.016000000000000014,1.0440000000000005l-7.942,-4.727999999999998l-0.01499999999999968,1.4159999999999968l7.979,4.795000000000002l0.018000000000000682,1.0760000000000005l-7.973,-4.740000000000002l-0.0129999999999999,1.4140000000000015l8.021,4.821999999999999l0.045999999999999375,0.02499999999999858l8.143,-4.872l-0.010999999999999233,-5.177l3.414999999999999,-2.0359999999999996v10.021000000000003l-11.548000000000004,6.872l-11.546999999999999,-6.871000000000002v-9.851999999999999Z" style="fill:#FFC600;"/>
</svg>